<?xml version="1.0" encoding="UTF-8"?><svg id="Layer_2" xmlns="http://www.w3.org/2000/svg" viewBox="0 0 528.75 724.75"><defs><style>.cls-1{fill:#e9c46a;}.cls-1,.cls-2,.cls-3,.cls-4,.cls-5,.cls-6{stroke:#000;stroke-miterlimit:10;}.cls-2{fill:#e76f51;}.cls-3{fill:#a8dadc;}.cls-4{fill:#2a9d8f;}.cls-5{fill:#1d3557;}.cls-6{fill:#264653;}</style></defs><g id="Layer_1-2"><g><polygon class="cls-4" points="527.73 533.53 263.71 681.93 1.02 533.1 263.71 385.18 527.73 533.53"/><polygon class="cls-6" points="527.73 575.3 263.74 723.9 263.74 682.13 527.73 533.53 527.73 575.3"/><polygon class="cls-3" points="263.6 723.74 1.7 574.33 1.7 532.68 263.6 682.09 263.6 723.74"/><polygon class="cls-5" points="526.91 447.63 513.95 460.58 503.11 442.67 516.61 430.5 526.91 447.63"/><rect class="cls-5" x="254.75" y="632.81" width="18.32" height="16.45"/><rect class="cls-5" x="54.39" y="518.19" width="18.32" height="16.45"/><path class="cls-5" d="M119.97,232.79l-52.01,29.23c-2.83,1.59-6.29,1.59-9.12-.02L7.09,232.69c-6.28-3.56-6.27-12.62,.02-16.16l51.74-29.14c2.82-1.59,6.27-1.59,9.1,0l52.02,29.23c6.31,3.55,6.31,12.63,0,16.18Z"/><path class="cls-5" d="M319.77,347.59l-52.01,29.23c-2.83,1.59-6.29,1.59-9.12-.02l-51.76-29.32c-6.28-3.56-6.27-12.62,.02-16.16l51.74-29.14c2.82-1.59,6.27-1.59,9.1,0l52.02,29.23c6.31,3.55,6.31,12.63,0,16.18Z"/><path class="cls-1" d="M49.78,533.49l-43.77-25.38c-2.79-1.62-4.51-4.6-4.51-7.82V224.98c0-6.97,7.55-11.32,13.58-7.82l43.77,25.38c2.79,1.62,4.51,4.6,4.51,7.82v275.3c0,6.97-7.55,11.32-13.58,7.82Z"/><path class="cls-5" d="M513.72,443.62l-245.38,137.93c-2.77,1.56-6.15,1.55-8.9-.02l-43.67-24.85c-6.11-3.48-6.09-12.29,.04-15.74l244.39-137.62c2.73-1.54,6.05-1.55,8.79-.05l44.66,24.55c6.22,3.42,6.26,12.33,.08,15.81Z"/><path class="cls-2" d="M263.33,640.19l.28-50.49c.02-3.25,1.78-6.24,4.61-7.83l245.96-138.44c6.03-3.39,13.48,.97,13.48,7.88l-.02,50.49c0,3.27-1.76,6.28-4.61,7.88l-246.22,138.44c-6.05,3.4-13.51-.99-13.48-7.93Z"/><path class="cls-2" d="M320.96,623.5l-43.77,24.6c-6.03,3.39-13.47-.97-13.47-7.88V364.75c0-3.27,1.76-6.28,4.61-7.88l43.77-24.6c6.03-3.39,13.47,.97,13.47,7.88v275.46c0,3.27-1.76,6.28-4.61,7.88Z"/><path class="cls-5" d="M120.99,508.83l-43.77,24.6c-6.03,3.39-13.47-.97-13.47-7.88V250.08c0-3.27,1.76-6.28,4.61-7.88l43.77-24.6c6.03-3.39,13.47,.97,13.47,7.88V500.95c0,3.27-1.76,6.28-4.61,7.88Z"/><polygon class="cls-1" points="201.67 512.05 63.67 432.87 63.67 363.73 201.67 442.92 201.67 512.05"/><polygon class="cls-5" points="201.67 442.92 63.75 363.65 125.47 329.04 201.84 372.17 201.67 442.92"/><path class="cls-1" d="M250.05,648.1l-43.77-25.38c-2.79-1.62-4.51-4.6-4.51-7.82V339.59c0-6.97,7.55-11.32,13.58-7.82l43.77,25.38c2.79,1.62,4.51,4.6,4.51,7.82v275.3c0,6.97-7.55,11.32-13.58,7.82Z"/><polygon class="cls-4" points="527.73 148.93 263.71 297.33 1.02 148.5 263.71 .57 527.73 148.93"/><polygon class="cls-6" points="527.73 190.7 263.74 339.3 263.74 297.53 527.73 148.93 527.73 190.7"/><polygon class="cls-3" points="263.6 339.14 1.7 189.73 1.7 148.08 263.6 297.49 263.6 339.14"/></g></g></svg>